Coordinates
version=1
nRows=32
nColumns=22
inDegrees=yes

Units are S.I. units (second, meters, Newtons, ...)
If the header above contains a line with 'inDegrees', this indicates whether rotational values are in degrees (yes) or radians (no).

endheader
time	pelvis_tilt	pelvis_list	pelvis_rotation	pelvis_tx	pelvis_ty	pelvis_tz	hip_flexion_r	hip_adduction_r	hip_rotation_r	knee_angle_r	ankle_angle_r	subtalar_angle_r	hip_flexion_l	hip_adduction_l	hip_rotation_l	knee_angle_l	ankle_angle_l	subtalar_angle_l	lumbar_extension	lumbar_bending	lumbar_rotation
      3.81000000	     -4.13159227	     -0.99170233	    -85.49900407	      0.01577054	      0.94259409	      0.91502461	     -0.10686277	     11.34864031	     10.52313273	    -20.59913430	     16.48696299	     -6.14208614	     26.83432264	     -7.64504467	      4.62789060	    -16.31443069	      9.74179119	      8.23707176	     -7.42747421	      1.72127332	      6.08498395
      3.82000000	     -4.16248841	     -0.91467549	    -85.69761430	      0.01803873	      0.94175340	      0.92131873	     -0.17962006	     11.29455472	     10.71284764	    -21.13831565	     16.74259133	     -5.97164578	     26.92708998	     -7.62737433	      3.82574276	    -16.50146915	      9.64808443	      8.05506494	     -7.28398501	      1.69776126	      6.15805298
      3.83000000	     -4.22756106	     -0.82676422	    -85.89657980	      0.02033250	      0.94091072	      0.92765388	     -0.24080026	     11.27237940	     10.90619431	    -21.67486064	     16.97368557	     -5.57418682	     27.02796655	     -7.63262462	      3.08306591	    -16.85403514	      9.42767556	      7.66419418	     -7.11850385	      1.71576060	      6.23666966
      3.84000000	     -4.28165233	     -0.77599527	    -86.11519959	      0.02260767	      0.94016075	      0.93408239	     -0.35551176	     11.24077624	     11.11787401	    -22.20297529	     17.13960201	     -5.44520733	     27.05364488	     -7.63768334	      2.36414615	    -17.31535081	      9.24183655	      7.43137228	     -6.98695281	      1.71904083	      6.34817034
      3.85000000	     -4.37923742	     -0.70064855	    -86.31545807	      0.02493355	      0.93940882	      0.94053197	     -0.43982749	     11.24578113	     11.30438891	    -22.72710055	     17.29418695	     -5.03505687	     27.08549887	     -7.65802684	      1.82636357	    -17.83596939	      8.81843759	      6.80835102	     -6.81788401	      1.77708631	      6.44116052
      3.86000000	     -4.47176605	     -0.63913700	    -86.53012690	      0.02724809	      0.93874948	      0.94704150	     -0.54048861	     11.24379915	     11.50837011	    -23.25622536	     17.39702585	     -4.71451716	     27.05909477	     -7.67424785	      1.37827120	    -18.36784606	      8.34143076	      6.24719127	     -6.65802486	      1.82821611	      6.54741589
      3.87000000	     -4.56064962	     -0.57173802	    -86.73832027	      0.02960541	      0.93817490	      0.95358305	     -0.63076187	     11.23118342	     11.70881017	    -23.79049672	     17.45214616	     -4.38170863	     27.01168867	     -7.67046519	      1.05773993	    -18.88749035	      7.72536690	      5.60617258	     -6.48638934	      1.87965353	      6.64860436
      3.88000000	     -4.63239206	     -0.49588987	    -86.93340489	      0.03202066	      0.93770890	      0.96014938	     -0.70182895	     11.19562340	     11.90813773	    -24.34022613	     17.45529798	     -4.01746110	     26.94902592	     -7.62816419	      0.87133613	    -19.36684202	      6.95699465	      4.87941708	     -6.30033125	      1.91591493	      6.72913540
      3.89000000	     -4.67341931	     -0.40768063	    -87.11125416	      0.03449756	      0.93736179	      0.96673603	     -0.73778375	     11.12615094	     12.10355329	    -24.92633403	     17.40705336	     -3.63930095	     26.88001846	     -7.53339498	      0.80265793	    -19.79324665	      6.08014671	      4.11525871	     -6.09685205	      1.92131623	      6.77563181
      3.90000000	     -4.69318535	     -0.32652060	    -87.24215048	      0.03710954	      0.93716990	      0.97337038	     -0.77998008	     11.02500906	     12.25142613	    -25.50313126	     17.29741515	     -3.21585274	     26.82536475	     -7.38532857	      0.84948569	    -20.22516328	      5.13026108	      3.32292330	     -5.89176969	      1.91159391	      6.78801527
      3.91000000	     -4.67932872	     -0.23718483	    -87.35456732	      0.03979220	      0.93711605	      0.98004506	     -0.78075351	     10.89232512	     12.38877344	    -26.13411988	     17.12454616	     -2.79372276	     26.77891613	     -7.19011780	      0.94916208	    -20.64237297	      4.17894634	      2.60654930	     -5.66932274	      1.86863392	      6.77461331
      3.92000000	     -4.64247021	     -0.15149403	    -87.43591200	      0.04256614	      0.93721137	      0.98677539	     -0.75599376	     10.74053732	     12.50271008	    -26.81058623	     16.87046538	     -2.34203384	     26.73561525	     -6.95704438	      1.09008875	    -21.06794676	      3.26924432	      1.95733769	     -5.44047926	      1.80732413	      6.72084530
      3.93000000	     -4.58141916	     -0.06414142	    -87.48990907	      0.04541237	      0.93742602	      0.99355504	     -0.68325865	     10.56887877	     12.56128068	    -27.55799454	     16.55162636	     -1.89075230	     26.70319242	     -6.69219751	      1.23986357	    -21.52205627	      2.44089021	      1.42295290	     -5.19833857	      1.72228013	      6.64588264
      3.94000000	     -4.50403772	      0.01567695	    -87.51856519	      0.04832072	      0.93774988	      1.00036719	     -0.56340794	     10.38713314	     12.55547810	    -28.38678791	     16.16975258	     -1.43931973	     26.66625829	     -6.40737725	      1.38769885	    -22.00409587	      1.72959422	      1.00925717	     -4.95661640	      1.62202503	      6.55965078
      3.95000000	     -4.41317698	      0.08374475	    -87.53027905	      0.05124759	      0.93819143	      1.00720055	     -0.39514637	     10.20790105	     12.51858758	    -29.30696142	     15.70147523	     -1.00793249	     26.59440779	     -6.11613071	      1.50542897	    -22.46951841	      1.13668600	      0.72565521	     -4.72265287	      1.50931312	      6.42223781
      3.96000000	     -4.34128962	      0.13199733	    -87.53678277	      0.05417965	      0.93871331	      1.01401928	     -0.17970462	     10.05542948	     12.41722737	    -30.31296580	     15.09893776	     -0.39058633	     26.51840048	     -5.85850863	      1.56497714	    -22.98586725	      0.72464202	      0.38240398	     -4.51072118	      1.41981788	      6.30710299
      3.97000000	     -4.23417655	      0.16658243	    -87.54311750	      0.05711146	      0.93930741	      1.02076687	      0.11327005	      9.87618563	     12.25507966	    -31.45024289	     14.44814964	      0.08291833	     26.37811299	     -5.57122896	      1.60934273	    -23.43343986	      0.40729780	      0.20182980	     -4.32395940	      1.29329184	      6.17413862
      3.98000000	     -4.13000552	      0.19209857	    -87.55748006	      0.06000260	      0.93993144	      1.02743724	      0.48136923	      9.70540694	     12.03795634	    -32.69095543	     13.66917392	      0.67742314	     26.21217162	     -5.30069735	      1.59872958	    -23.86508296	      0.24603599	     -0.02562071	     -4.15632513	      1.16898262	      6.03605124
      3.99000000	     -4.03658311	      0.18355486	    -87.59219474	      0.06285049	      0.94060322	      1.03400489	      0.89824856	      9.54437363	     11.76883662	    -34.03029776	     12.79997925	      1.45108026	     25.97637044	     -5.05840057	      1.52530212	    -24.24470823	      0.25667725	     -0.29879814	     -4.04301580	      1.06480600	      5.88447840
      4.00000000	     -3.90702241	      0.17751585	    -87.64761201	      0.06565596	      0.94126117	      1.04041666	      1.41530653	      9.33174107	     11.41401839	    -35.48303639	     11.86233785	      2.08676847	     25.69309510	     -4.78428109	      1.42107533	    -24.53847588	      0.29438246	     -0.51968176	     -3.94885741	      0.92155947	      5.74924075
      4.01000000	     -3.78862399	      0.13855994	    -87.72262694	      0.06838887	      0.94193712	      1.04669195	      1.95672194	      9.12445593	     11.04722238	    -36.97936705	     10.81625950	      2.98433282	     25.35718450	     -4.53344772	      1.27072890	    -24.79950330	      0.46221932	     -0.82381434	     -3.91043812	      0.79546004	      5.60140389
      4.02000000	     -3.65089081	      0.10248250	    -87.81694194	      0.07105838	      0.94255367	      1.05279935	      2.57890137	      8.86930408	     10.59914111	    -38.54533757	      9.74895314	      3.84158577	     24.99835922	     -4.27489185	      1.05323426	    -25.00527637	      0.67621155	     -1.12416422	     -3.88907184	      0.65126342	      5.44121543
      4.03000000	     -3.51679392	      0.04275384	    -87.93488542	      0.07365094	      0.94316627	      1.05874346	      3.22917724	      8.59163905	     10.11520881	    -40.13568898	      8.64996034	      4.83838011	     24.58223181	     -4.02961262	      0.81202168	    -25.14410467	      0.93472353	     -1.43565969	     -3.91315046	      0.51723958	      5.28844262
      4.04000000	     -3.37612754	     -0.02082832	    -88.06511661	      0.07616680	      0.94372190	      1.06451687	      3.92500364	      8.27412691	      9.58172660	    -41.74367946	      7.58569549	      5.90225223	     24.15235770	     -3.78664228	      0.53476429	    -25.25090057	      1.23370138	     -1.74289282	     -3.95841555	      0.37837924	      5.11973196
      4.05000000	     -3.22041157	     -0.08637732	    -88.20383292	      0.07861916	      0.94421056	      1.07010786	      4.66142056	      7.90066790	      8.99775762	    -43.35805654	      6.62471842	      6.99908052	     23.72352200	     -3.53670208	      0.21969703	    -25.34538697	      1.55322939	     -2.03311810	     -4.02252469	      0.22736318	      4.92103146
      4.06000000	     -3.07724054	     -0.16409229	    -88.34962904	      0.08100512	      0.94466533	      1.07553196	      5.40919260	      7.50431145	      8.39169416	    -44.94367914	      5.79792690	      8.19804127	     23.27693130	     -3.29971258	     -0.07066647	    -25.41616961	      1.91491623	     -2.31382357	     -4.11273534	      0.09697571	      4.72143829
      4.07000000	     -2.92825795	     -0.23536436	    -88.49585035	      0.08334210	      0.94505658	      1.08078883	      6.18412852	      7.05457017	      7.74373805	    -46.49598848	      5.20082148	      9.34323289	     22.84529385	     -3.05834620	     -0.36403310	    -25.48147358	      2.28699505	     -2.57117636	     -4.20576413	     -0.03390063	      4.50574532
      4.08000000	     -2.76480844	     -0.30228781	    -88.63803860	      0.08564097	      0.94539081	      1.08587744	      6.97339379	      6.54737847	      7.08462118	    -48.00158276	      4.88699525	     10.36602240	     22.43795980	     -2.79926768	     -0.64677812	    -25.56300787	      2.66024965	     -2.80814261	     -4.30255244	     -0.17427565	      4.26009452
      4.09000000	     -2.59546089	     -0.36095672	    -88.77860618	      0.08789638	      0.94568812	      1.09082173	      7.76745886	      5.98809536	      6.41851536	    -49.43178913	      4.87580835	     11.19547968	     22.05031678	     -2.52919137	     -0.90079028	    -25.64761388	      3.03031378	     -3.02764950	     -4.39547165	     -0.31794740	      4.00455261
      4.10000000	     -2.41019293	     -0.42574318	    -88.90913152	      0.09014730	      0.94599929	      1.09564028	      8.53390084	      5.36467583	      5.74632629	    -50.75001867	      5.15076507	     11.64776478	     21.66589119	     -2.23663122	     -1.14794167	    -25.72943767	      3.35260335	     -3.19648327	     -4.49785412	     -0.46811748	      3.71909892
      4.11000000	     -2.24593310	     -0.49276699	    -89.04681669	      0.09235200	      0.94634085	      1.10036728	      9.26691720	      4.73117523	      5.09945579	    -51.92018933	      5.64415971	     11.85436898	     21.26404806	     -1.94928150	     -1.29951121	    -25.78059756	      3.74335310	     -3.36557719	     -4.59830308	     -0.59000873	      3.47290614
      4.12000000	     -2.09901288	     -0.53722271	    -89.17412390	      0.09450696	      0.94667507	      1.10495967	     10.00169426	      4.08999744	      4.46244610	    -52.93481535	      6.27595310	     11.98978115	     20.92083763	     -1.68353388	     -1.47508598	    -25.86501425	      4.04715711	     -3.57254395	     -4.67332907	     -0.68726867	      3.17581134
